<?xml version="1.0" encoding="utf-8"?>
<!-- Generator: Adobe Illustrator 16.0.0, SVG Export Plug-In . SVG Version: 6.00 Build 0)  -->
<!DOCTYPE svg PUBLIC "-//W3C//DTD SVG 1.1//EN" "http://www.w3.org/Graphics/SVG/1.1/DTD/svg11.dtd">
<svg version="1.1" id="Capa_1" xmlns="http://www.w3.org/2000/svg" xmlns:xlink="http://www.w3.org/1999/xlink" x="0px" y="0px"
	 width="512px" height="512px" viewBox="0 0 512 512" enable-background="new 0 0 512 512" xml:space="preserve">
<rect fill="#60B1F4" width="512" height="512"/>
<g enable-background="new    ">
	<path fill="#FFFFFF" d="M284.46,267.698c-3.313,1.841-5.892,4.419-5.892,6.997c0,5.155,0.369,12.521,1.105,22.096
		c-7.365,2.945-21.359,6.26-38.667,7.364c-5.524-8.102-13.994-27.619-14.362-41.612c38.298-26.515,54.87-40.14,54.87-65.918
		c0-16.571-11.415-26.146-23.568-26.146c-5.892,0-11.785,1.105-16.203,4.419c-1.473,1.104-2.209,1.841-2.578,4.05l-8.838,30.197
		c-12.889-1.104-26.146-2.577-37.93-4.419c1.473-18.781,2.578-38.667,4.051-58.552c14.362-6.998,45.663-12.521,74.387-12.521
		c46.032,0,78.07,20.254,78.07,57.448C348.905,226.822,324.6,247.076,284.46,267.698z M290.353,352.766
		c0,16.203-12.521,27.619-31.67,27.619c-15.467,0-29.829-11.049-29.829-27.252s13.257-29.828,31.67-29.828
		C278.2,323.305,290.353,335.089,290.353,352.766z"/>
</g>
</svg>
